# xmcd
#
# Track frame offsets:
#	150
#	17708
#	43358
#	75758
#	110820
#	131886
#	155234
#
# Disc length: 2306 seconds
#
# Revision: 1
# Processed by: cddbd v1.5.2PL0 Copyright (c) Steve Scherf et al.
# Submitted via: audiograbber 1.83.01
#
DISCID=5c090007
DTITLE=Golden Earring - Complete Studio Recordings [CD 12) - Contraband [remast
DTITLE=ered 2017]
DYEAR=1976
DGENRE=Rock
TTITLE0=Bombay
TTITLE1=Sueleen
TTITLE2=Con Man
TTITLE3=Mad Love's Comin'
TTITLE4=Fighting Windmills
TTITLE5=Faded Jeans
TTITLE6=Time's Up
EXTD=
EXTT0=
EXTT1=
EXTT2=
EXTT3=
EXTT4=
EXTT5=
EXTT6=
PLAYORDER=
